<?xml version="1.0" encoding="UTF-8" standalone="no"?>
<svg
   xmlns:dc="http://purl.org/dc/elements/1.1/"
   xmlns:cc="http://creativecommons.org/ns#"
   xmlns:rdf="http://www.w3.org/1999/02/22-rdf-syntax-ns#"
   xmlns:svg="http://www.w3.org/2000/svg"
   xmlns="http://www.w3.org/2000/svg"
   xmlns:xlink="http://www.w3.org/1999/xlink"
   xmlns:sodipodi="http://sodipodi.sourceforge.net/DTD/sodipodi-0.dtd"
   xmlns:inkscape="http://www.inkscape.org/namespaces/inkscape"
   id="svg2178"
   sodipodi:version="0.32"
   inkscape:version="0.92.3 (2405546, 2018-03-11)"
   width="210mm"
   height="297mm"
   sodipodi:docname="hibiscus-blume.svg"
   inkscape:output_extension="org.inkscape.output.svg.inkscape"
   inkscape:export-filename="/home/willuhn/download/hibiscus.png"
   inkscape:export-xdpi="69.269997"
   inkscape:export-ydpi="69.269997"
   version="1.1">
  <sodipodi:namedview
     inkscape:cy="771.57627"
     inkscape:cx="188.36813"
     inkscape:zoom="2.2321063"
     inkscape:window-height="836"
     inkscape:window-width="943"
     inkscape:pageshadow="2"
     inkscape:pageopacity="0.0"
     guidetolerance="10.0"
     gridtolerance="10.0"
     objecttolerance="10.0"
     borderopacity="1.0"
     bordercolor="#666666"
     pagecolor="#ffffff"
     id="base"
     inkscape:window-x="120"
     inkscape:window-y="72"
     inkscape:current-layer="svg2178"
     showgrid="false"
     inkscape:window-maximized="0" />
  <metadata
     id="metadata2799">
    <rdf:RDF>
      <cc:Work
         rdf:about="">
        <dc:format>image/svg+xml</dc:format>
        <dc:type
           rdf:resource="http://purl.org/dc/dcmitype/StillImage" />
      </cc:Work>
    </rdf:RDF>
  </metadata>
  <defs
     id="defs2797">
    <linearGradient
       id="linearGradient4893">
      <stop
         style="stop-color:#ffffff;stop-opacity:1;"
         offset="0"
         id="stop4895" />
      <stop
         style="stop-color:#ffffff;stop-opacity:0;"
         offset="1"
         id="stop4897" />
    </linearGradient>
    <linearGradient
       id="linearGradient4868">
      <stop
         id="stop4870"
         offset="0"
         style="stop-color:#e84200;stop-opacity:1;" />
      <stop
         style="stop-color:#9b4610;stop-opacity:1;"
         offset="0.5"
         id="stop4874" />
      <stop
         id="stop4876"
         offset="0.5"
         style="stop-color:#cc7327;stop-opacity:1;" />
      <stop
         id="stop4872"
         offset="1"
         style="stop-color:#fda03f;stop-opacity:1;" />
    </linearGradient>
    <linearGradient
       id="linearGradient3458">
      <stop
         style="stop-color:#e84200;stop-opacity:1;"
         offset="0"
         id="stop3460" />
      <stop
         style="stop-color:#fda03f;stop-opacity:1;"
         offset="1"
         id="stop3462" />
    </linearGradient>
    <inkscape:perspective
       sodipodi:type="inkscape:persp3d"
       inkscape:vp_x="0 : 561.25983 : 1"
       inkscape:vp_y="0 : 1066.6667 : 0"
       inkscape:vp_z="793.70078 : 561.25983 : 1"
       inkscape:persp3d-origin="396.85039 : 374.17322 : 1"
       id="perspective314" />
    <radialGradient
       inkscape:collect="always"
       xlink:href="#linearGradient3458"
       id="radialGradient3464"
       cx="217.99229"
       cy="503.81921"
       fx="217.99229"
       fy="503.81921"
       r="144.30574"
       gradientTransform="matrix(1,0,0,0.9841488,-8.9601469,7.9861153)"
       gradientUnits="userSpaceOnUse" />
    <filter
       inkscape:collect="always"
       id="filter3522"
       x="-0.11554706"
       width="1.2310941"
       y="-0.11747862"
       height="1.2349572">
      <feGaussianBlur
         inkscape:collect="always"
         stdDeviation="13.395924"
         id="feGaussianBlur3524" />
    </filter>
    <radialGradient
       inkscape:collect="always"
       xlink:href="#linearGradient3458"
       id="radialGradient3528"
       gradientUnits="userSpaceOnUse"
       gradientTransform="matrix(1,0,0,0.9841488,-8.5121398,8.4341226)"
       cx="217.99229"
       cy="503.81921"
       fx="217.99229"
       fy="503.81921"
       r="144.30574" />
    <clipPath
       id="clipPath">
      <path
         d="M 247.41525,384.01802 C 269.08725,389.85002 296.59125,377.25002 285.21525,419.51402 C 280.53525,436.93802 227.11125,485.03402 230.85525,489.78602 C 239.06325,500.15402 300.40725,456.88202 325.67925,463.72202 C 364.05525,474.01802 342.81525,506.56202 342.09525,516.64202 C 339.21525,559.26602 339.50325,557.39402 315.31125,557.61002 C 289.31925,557.89802 231.21525,516.21002 228.76725,525.28202 C 224.30325,541.77002 288.88725,563.80202 300.62325,585.25802 C 315.16725,611.82602 273.62325,614.20202 262.46325,620.46602 C 252.52725,626.01002 234.81525,644.01002 222.28725,640.69802 C 171.16725,627.01802 208.10325,545.94602 192.26325,541.69802 C 179.30325,538.17002 185.92725,601.67402 167.56725,615.93002 C 138.91125,638.25002 121.63125,605.85002 110.61525,587.85002 C 104.20725,577.33802 70.223248,562.72202 73.319248,551.41802 C 81.959248,519.16202 134.30325,515.49002 161.95125,509.37002 C 166.55925,508.36202 96.575248,492.45002 82.463248,477.33002 C 51.935248,444.64202 87.359248,448.81802 99.167248,433.98602 C 110.18325,420.16202 97.655248,402.37802 126.81525,410.22602 C 150.07125,416.41802 186.71925,479.49002 187.15125,472.29002 C 188.87925,447.30602 162.52725,423.40202 198.31125,377.89802 C 218.18325,352.62602 234.88725,380.63402 247.41525,384.01802 z"
         id="path3526"
         style="fill:url(#radialGradient3528);fill-opacity:1;stroke:none;stroke-width:9.26799965;stroke-linejoin:round;stroke-miterlimit:4;stroke-dasharray:none" />
    </clipPath>
    <filter
       id="filter"
       height="1.10000002384"
       width="2.0"
       x="-0.5"
       y="-0.5">
      <feGaussianBlur
         stdDeviation="5.0"
         id="feGaussianBlur4649" />
    </filter>
    <radialGradient
       r="144.30574"
       fy="503.81921"
       fx="217.99229"
       cy="503.81921"
       cx="217.99229"
       gradientTransform="matrix(1,0,0,0.9841488,-69.441138,89.52345)"
       gradientUnits="userSpaceOnUse"
       id="radialGradient4689"
       xlink:href="#linearGradient3458"
       inkscape:collect="always" />
    <radialGradient
       r="144.30574"
       fy="503.81921"
       fx="217.99229"
       cy="503.81921"
       cx="217.99229"
       gradientTransform="matrix(1,0,0,0.9841488,-2.6880437,7.9861155)"
       gradientUnits="userSpaceOnUse"
       id="radialGradient4693"
       xlink:href="#linearGradient3458"
       inkscape:collect="always" />
    <clipPath
       id="clipPaths">
      <path
         d="M 253.23934,383.57001 C 274.91134,389.40201 302.41534,376.80201 291.03934,419.06601 C 286.35934,436.49001 232.93534,484.58601 236.67934,489.33801 C 244.88734,499.70601 306.23134,456.43401 331.50334,463.27401 C 369.87934,473.57001 348.63934,506.11401 347.91934,516.19401 C 345.03934,558.81801 345.32734,556.94601 321.13534,557.16201 C 295.14334,557.45001 237.03934,515.76201 234.59134,524.83401 C 230.12734,541.32201 294.71134,563.35401 306.44734,584.81001 C 320.99134,611.37801 279.44734,613.75401 268.28734,620.01801 C 258.35134,625.56201 240.63934,643.56201 228.11134,640.25001 C 176.99134,626.57001 213.92734,545.49801 198.08734,541.25001 C 185.12734,537.72201 191.75134,601.22601 173.39134,615.48201 C 144.73534,637.80201 127.45534,605.40201 116.43934,587.40201 C 110.03134,576.89001 76.047343,562.27401 79.143343,550.97001 C 87.783343,518.71401 140.12734,515.04201 167.77534,508.92201 C 172.38334,507.91401 102.39934,492.00201 88.287343,476.88201 C 57.759343,444.19401 93.183343,448.37001 104.99134,433.53801 C 116.00734,419.71401 103.47934,401.93001 132.63934,409.77801 C 155.89534,415.97001 192.54334,479.04201 192.97534,471.84201 C 194.70334,446.85801 168.35134,422.95401 204.13534,377.45001 C 224.00734,352.17801 240.71134,380.18601 253.23934,383.57001 z"
         id="path4787"
         style="fill:url(#radialGradient4693);fill-opacity:1;stroke:none;stroke-width:9.26799965000000014;stroke-linecap:round;stroke-linejoin:round;stroke-miterlimit:4;stroke-dasharray:none" />
    </clipPath>
    <filter
       y="-0.5"
       x="-0.5"
       width="2.0"
       height="2.0"
       id="filterM">
      <feGaussianBlur
         id="feGaussianBlur4810"
         stdDeviation="5.0" />
    </filter>
    <radialGradient
       inkscape:collect="always"
       xlink:href="#linearGradient3458"
       id="radialGradient4860"
       gradientUnits="userSpaceOnUse"
       gradientTransform="matrix(1,0,0,0.9841488,-140.80806,2.283913)"
       cx="217.99229"
       cy="503.81921"
       fx="217.99229"
       fy="503.81921"
       r="144.30574" />
    <linearGradient
       inkscape:collect="always"
       xlink:href="#linearGradient4893"
       id="linearGradient4899"
       x1="204.16528"
       y1="366.98489"
       x2="204.16528"
       y2="557.69159"
       gradientUnits="userSpaceOnUse"
       gradientTransform="matrix(0.9134716,0,0,0.9398067,18.629935,30.32656)" />
    <linearGradient
       inkscape:collect="always"
       xlink:href="#linearGradient4893"
       id="linearGradient4937"
       x1="76.556366"
       y1="420.3241"
       x2="294.06732"
       y2="420.3241"
       gradientUnits="userSpaceOnUse"
       gradientTransform="translate(55.552906,-184.57902)" />
    <radialGradient
       inkscape:collect="always"
       xlink:href="#linearGradient3458"
       id="radialGradient4939"
       gradientUnits="userSpaceOnUse"
       gradientTransform="matrix(1,0,0,0.9841488,51.072836,-181.96899)"
       cx="217.99229"
       cy="503.81921"
       fx="217.99229"
       fy="503.81921"
       r="144.30574" />
  </defs>
  <path
     d="m 311.0323,200.33501 c 21.672,5.832 49.176,-6.768 37.8,35.496 -4.68,17.424 -58.104,65.52 -54.36,70.272 8.208,10.368 69.552,-32.904 94.824,-26.064 38.376,10.296 17.136,42.84 16.416,52.92 -2.88,42.624 -2.592,40.752 -26.784,40.968 -25.992,0.288 -84.096,-41.4 -86.544,-32.328 -4.464,16.488 60.12,38.52 71.856,59.976 14.544,26.568 -27,28.944 -38.16,35.208 -9.936,5.544 -27.648,23.54403 -40.176,20.23203 -51.12,-13.68003 -14.184,-94.75203 -30.024,-99.00003 -12.96,-3.528 -6.336,59.976 -24.696,74.232 -28.656,22.32003 -45.936,-10.08 -56.952,-28.08 -6.408,-10.512 -40.392,-25.128 -37.296,-36.432 8.63999,-32.256 60.984,-35.928 88.632,-42.048 4.608,-1.008 -65.376,-16.92 -79.48801,-32.04 -30.52799,-32.688 4.896,-28.512 16.70401,-43.344 11.016,-13.824 -1.512,-31.608 27.648,-23.76 23.256,6.192 59.904,69.264 60.336,62.064 1.728,-24.984 -24.624,-48.888 11.16,-94.392 19.872,-25.272 36.576,2.736 49.104,6.12 z"
     id="path3466"
     style="fill:#000000;fill-opacity:1;stroke:none;filter:url(#filter3522)"
     inkscape:connector-curvature="0" />
  <path
     style="fill:url(#radialGradient4939);fill-opacity:1;stroke:#000000;stroke-width:9.26799965;stroke-linecap:round;stroke-linejoin:round;stroke-miterlimit:4;stroke-dasharray:none"
     id="path2794"
     d="m 307.00023,193.6149 c 21.672,5.832 49.176,-6.768 37.8,35.496 -4.68,17.424 -58.104,65.52 -54.36,70.272 8.208,10.368 69.552,-32.904 94.824,-26.064 38.376,10.296 17.136,42.84 16.416,52.92 -2.88,42.624 -2.592,40.752 -26.784,40.968 -25.992,0.288 -84.096,-41.4 -86.544,-32.328 -4.464,16.488 60.12,38.52 71.856,59.976 14.544,26.568 -27,28.944 -38.16,35.208 -9.936,5.544 -27.648,23.54404 -40.176,20.23204 -51.12,-13.68004 -14.184,-94.75204 -30.024,-99.00004 -12.96,-3.528 -6.336,59.976 -24.696,74.232 -28.656,22.32004 -45.936,-10.08 -56.952,-28.08 -6.408,-10.512 -40.392,-25.128 -37.296,-36.432 8.64,-32.256 60.984,-35.928 88.632,-42.048 4.608,-1.008 -65.376,-16.92 -79.488,-32.04 -30.528,-32.688 4.896,-28.512 16.704,-43.344 11.016,-13.824 -1.512,-31.608 27.648,-23.76 23.256,6.192 59.904,69.264 60.336,62.064 1.728,-24.984 -24.624,-48.888 11.16,-94.392 19.872,-25.272 36.576,2.736 49.104,6.12 z"
     inkscape:connector-curvature="0" />
  <g
     id="g4818"
     clip-path="url(#clipPaths)"
     transform="translate(53.760876,-189.95511)">
    <g
       id="g4820">
      <path
         d="m 253.23934,383.57001 c 21.672,5.832 49.176,-6.768 37.8,35.496 m 0,0 c -4.68,17.424 -58.104,65.52 -54.36,70.272 m 0,0 c 8.208,10.368 69.552,-32.904 94.824,-26.064 m 0,0 c 38.376,10.296 17.136,42.84 16.416,52.92 m 0,0 c -2.88,42.624 -2.592,40.752 -26.784,40.968 m -86.544,-32.328 c -4.464,16.488 60.12,38.52 71.856,59.976 m -108.36,-43.56 c -12.96,-3.528 -6.336,59.976 -24.696,74.232 m -94.247997,-64.512 c 8.64,-32.256 60.983997,-35.928 88.631997,-42.048 m -62.784,-75.384 c 11.016,-13.824 -1.512,-31.608 27.648,-23.76 m 0,0 c 23.256,6.192 59.904,69.264 60.336,62.064 m 11.16,-94.392 c 19.872,-25.272 36.576,2.736 49.104,6.12"
         id="path4822"
         style="fill:none;stroke:#ffffff;stroke-width:10;stroke-opacity:1;filter:url(#filterM)"
         inkscape:connector-curvature="0" />
      <path
         d="m 321.13534,557.16201 c -25.992,0.288 -84.096,-41.4 -86.544,-32.328 m 71.856,59.976 c 14.544,26.568 -27,28.944 -38.16,35.208 m 0,0 c -9.936,5.544 -27.648,23.544 -40.176,20.232 m 0,0 c -51.12,-13.68 -14.184,-94.752 -30.024,-99 m -24.696,74.232 c -28.656,22.32 -45.936,-10.08 -56.952,-28.08 m 0,0 c -6.408,-10.512 -40.391997,-25.128 -37.295997,-36.432 m 88.631997,-42.048 c 4.608,-1.008 -65.376,-16.92 -79.487997,-32.04 m 0,0 c -30.528,-32.688 4.896,-28.512 16.703997,-43.344 m 87.984,38.304 c 1.728,-24.984 -24.624,-48.888 11.16,-94.392"
         id="path4824"
         style="fill:none;stroke:#000000;stroke-width:10;stroke-opacity:1;filter:url(#filterM)"
         inkscape:connector-curvature="0" />
    </g>
  </g>
  <path
     style="opacity:0.33663366;fill:url(#linearGradient4937);fill-opacity:1;stroke:none"
     d="m 277.74241,177.90361 c -5.56049,-0.13131 -11.4775,2.54 -17.6875,10.4375 -23.44898,29.81842 -20.18498,50.35013 -15.65625,68 2.59125,-0.69114 5.18589,-1.35098 7.8125,-2 30.506,-7.53785 60.28951,-11.4377 87.84375,-12.03125 3.52228,-4.844 6.04193,-9.12583 6.90625,-12.34375 11.376,-42.264 -16.10924,-29.668 -37.78125,-35.5 -8.613,-2.3265 -19.20443,-16.27362 -31.4375,-16.5625 z m -101.59375,40.875 c -12.854,0.58797 -6.26825,14.42424 -15.21875,25.65625 -11.808,14.832 -47.24676,10.65574 -16.71876,43.34375 1.80201,1.93072 4.52259,3.88863 7.875,5.8125 22.68249,-12.99197 49.07858,-24.35754 78.03126,-33.15625 -12.55709,-16.49445 -29.00398,-36.40625 -41.5625,-39.75 -5.4675,-1.4715 -9.43994,-2.04193 -12.40625,-1.90625 z"
     id="path4864"
     inkscape:connector-curvature="0" />
  <rect
     style="color:#000000;clip-rule:nonzero;display:inline;overflow:visible;visibility:visible;opacity:0;isolation:auto;mix-blend-mode:normal;color-interpolation:sRGB;color-interpolation-filters:linearRGB;solid-color:#000000;solid-opacity:1;fill:#ffffff;fill-opacity:0.03243243;fill-rule:evenodd;stroke:none;stroke-width:5.18955994;stroke-linecap:square;stroke-linejoin:round;stroke-miterlimit:4;stroke-dasharray:none;stroke-dashoffset:0;stroke-opacity:1;paint-order:normal;color-rendering:auto;image-rendering:auto;shape-rendering:auto;text-rendering:auto;enable-background:accumulate"
     id="rect850"
     width="354.81042"
     height="354.81046"
     x="92.343651"
     y="139.87903" />
</svg>
